<svg width="100" height="20" viewBox="0 0 100 20" fill="none" xmlns="http://www.w3.org/2000/svg">
<path d="M17.9126 8.33345H7.22365C7.09417 8.33345 7.08395 8.28355 7.2032 8.22699L23.4087 0.106455C23.528 0.0465741 23.5177 0 23.3883 0H16.703C16.5633 0 16.3622 0.0499009 16.243 0.106455L3.61523 6.4605C3.49597 6.52038 3.39716 6.66676 3.39716 6.80315V0.232871C3.39716 0.106455 3.29494 0 3.15524 0H0.238517C0.109036 0 0 0.106455 0 0.232871V19.7009C0 19.8273 0.109036 19.9337 0.238517 19.9337H3.15524C3.29494 19.9337 3.39716 19.8273 3.39716 19.7009V11.4473C3.39716 11.5737 3.5062 11.6801 3.6459 11.6801L18.1613 11.6602C19.6606 11.6602 20.4102 12.4785 20.4102 14.1186V19.7009C20.4102 19.8273 20.509 19.9337 20.6487 19.9337H23.5961C23.7256 19.9337 23.838 19.8273 23.838 19.7009V13.2637C23.838 9.9835 21.8584 8.33345 17.9126 8.33345Z" fill="white"/>
<path d="M30.1521 11.6635C30.0226 11.6635 29.9136 11.77 29.9136 11.8964V19.7042C29.9136 19.8306 29.8046 19.9371 29.6751 19.9371H26.7584C26.6187 19.9371 26.5096 19.8306 26.5096 19.7042V8.56964C26.5096 8.44323 26.6187 8.33677 26.7584 8.33677H50.1058C50.2455 8.33677 50.3443 8.44323 50.3443 8.56964V11.4306C50.3443 11.557 50.2455 11.6635 50.1058 11.6635H30.1521ZM26.755 3.32672C26.6153 3.32672 26.5062 3.22027 26.5062 3.09385V0.232871C26.5062 0.106455 26.6153 0 26.755 0H50.1023C50.242 0 50.3409 0.106455 50.3409 0.232871V3.09053C50.3409 3.21694 50.242 3.3234 50.1023 3.3234H26.755V3.32672Z" fill="white"/>
<path d="M49.8941 19.9973C49.7544 19.9973 49.693 19.9008 49.7544 19.781L58.1774 3.357C58.7464 2.24587 59.2269 1.47407 59.6051 1.04492C60.1128 0.469401 60.7738 0.126748 61.5814 0.0302734C62.3923 0.126748 63.05 0.459421 63.5611 1.01498C63.7417 1.21126 63.9427 1.50401 64.1812 1.90322C64.4095 2.29245 64.8695 3.14409 64.8695 3.14409C64.9308 3.26052 65.0297 3.44682 65.091 3.56326L73.3846 19.7844C73.4459 19.9008 73.3743 20.0006 73.2449 20.0006H70.3281C70.1987 20.0006 70.0385 19.9041 69.9772 19.7844L62.4332 5.02036C62.1129 4.38496 61.8335 4.07224 61.6155 4.07224C61.3769 4.07224 60.8965 4.8141 60.8965 4.8141C60.8249 4.93054 60.7159 5.11684 60.658 5.22329L53.1345 19.7844C53.0732 19.9008 52.9164 20.0006 52.7835 20.0006H49.8941V19.9973Z" fill="white"/>
<path d="M81.8046 11.6635H81.8557C81.9272 11.6635 82.0942 11.6635 82.2237 11.6635L94.0234 11.6435C94.0371 11.6435 94.0507 11.6402 94.0609 11.6402V11.6435C98.0067 11.6435 99.9966 9.95356 99.9966 6.67674V4.98676C99.9966 1.66004 98.0169 0 94.0712 0H76.3698C76.2403 0 76.1313 0.106455 76.1313 0.232871V3.05393C76.1313 3.19033 76.2403 3.29678 76.3698 3.29678H94.3131C95.8123 3.29678 96.562 4.95682 96.562 5.78518C96.562 6.61353 95.8634 8.24362 94.3642 8.27357C94.3233 8.27357 94.2552 8.27689 94.1972 8.28687C94.1734 8.28022 94.1495 8.27357 94.1257 8.27357C94.1257 8.27357 82.0567 8.33345 82.0261 8.33345C78.1008 8.34343 76.1313 10.0035 76.1313 13.2603V19.7009C76.1313 19.8273 76.2403 19.9337 76.3698 19.9337H99.7581C99.8876 19.9337 100 19.8273 100 19.7009V16.8698C100 16.7434 99.891 16.637 99.7581 16.637H79.7976C79.6682 16.637 79.5591 16.5305 79.5591 16.4041V14.1219C79.5557 12.4819 80.3053 11.6635 81.8046 11.6635Z" fill="white"/>
</svg>
