<svg width="1159" height="269" viewBox="0 0 1159 269" fill="none" xmlns="http://www.w3.org/2000/svg">
<path d="M448.013 229.794H440.345V243H426.287V193.3H449.007C453.504 193.3 457.409 194.057 460.722 195.572C464.036 197.039 466.592 199.169 468.39 201.962C470.189 204.707 471.088 207.95 471.088 211.689C471.088 215.286 470.236 218.434 468.532 221.132C466.876 223.783 464.485 225.865 461.361 227.38L472.082 243H457.03L448.013 229.794ZM456.888 211.689C456.888 209.37 456.155 207.571 454.687 206.293C453.22 205.015 451.043 204.376 448.155 204.376H440.345V218.931H448.155C451.043 218.931 453.22 218.316 454.687 217.085C456.155 215.807 456.888 214.008 456.888 211.689ZM512.143 233.344H491.127L487.222 243H472.88L494.819 193.3H508.664L530.674 243H516.048L512.143 233.344ZM508.025 222.978L501.635 207.074L495.245 222.978H508.025ZM558.164 225.179V243H544.106V224.966L525.149 193.3H539.988L551.774 213.038L563.56 193.3H577.192L558.164 225.179ZM590.168 204.447H574.903V193.3H619.42V204.447H604.226V243H590.168V204.447ZM646.384 229.794H638.716V243H624.658V193.3H647.378C651.874 193.3 655.779 194.057 659.093 195.572C662.406 197.039 664.962 199.169 666.761 201.962C668.559 204.707 669.459 207.95 669.459 211.689C669.459 215.286 668.607 218.434 666.903 221.132C665.246 223.783 662.856 225.865 659.732 227.38L670.453 243H655.401L646.384 229.794ZM655.259 211.689C655.259 209.37 654.525 207.571 653.058 206.293C651.59 205.015 649.413 204.376 646.526 204.376H638.716V218.931H646.526C649.413 218.931 651.59 218.316 653.058 217.085C654.525 215.807 655.259 214.008 655.259 211.689ZM710.513 233.344H689.497L685.592 243H671.25L693.189 193.3H707.034L729.044 243H714.418L710.513 233.344ZM706.395 222.978L700.005 207.074L693.615 222.978H706.395ZM757.115 243.994C751.909 243.994 747.223 242.905 743.057 240.728C738.939 238.503 735.697 235.427 733.33 231.498C730.964 227.569 729.78 223.12 729.78 218.15C729.78 213.18 730.964 208.731 733.33 204.802C735.697 200.873 738.939 197.82 743.057 195.643C747.223 193.418 751.909 192.306 757.115 192.306C761.659 192.306 765.754 193.111 769.398 194.72C773.043 196.329 776.072 198.649 778.486 201.678L769.54 209.772C766.322 205.891 762.417 203.95 757.825 203.95C755.127 203.95 752.713 204.542 750.583 205.725C748.501 206.908 746.868 208.589 745.684 210.766C744.548 212.896 743.98 215.357 743.98 218.15C743.98 220.943 744.548 223.428 745.684 225.605C746.868 227.735 748.501 229.392 750.583 230.575C752.713 231.758 755.127 232.35 757.825 232.35C762.417 232.35 766.322 230.409 769.54 226.528L778.486 234.622C776.072 237.651 773.043 239.971 769.398 241.58C765.754 243.189 761.659 243.994 757.115 243.994ZM784.754 193.3H798.812V243H784.754V193.3ZM856.1 193.3V243H844.527L822.588 216.517V243H808.814V193.3H820.387L842.326 219.783V193.3H856.1ZM899.315 217.085H911.74V237.675C908.9 239.71 905.634 241.272 901.942 242.361C898.25 243.45 894.558 243.994 890.866 243.994C885.659 243.994 880.973 242.905 876.808 240.728C872.643 238.503 869.377 235.427 867.01 231.498C864.643 227.569 863.46 223.12 863.46 218.15C863.46 213.18 864.643 208.731 867.01 204.802C869.377 200.873 872.666 197.82 876.879 195.643C881.092 193.418 885.849 192.306 891.15 192.306C895.789 192.306 899.954 193.087 903.646 194.649C907.338 196.211 910.415 198.459 912.876 201.394L903.93 209.488C900.569 205.796 896.546 203.95 891.86 203.95C887.6 203.95 884.168 205.252 881.565 207.855C878.962 210.411 877.66 213.843 877.66 218.15C877.66 220.895 878.252 223.357 879.435 225.534C880.618 227.664 882.275 229.344 884.405 230.575C886.535 231.758 888.973 232.35 891.718 232.35C894.416 232.35 896.948 231.806 899.315 230.717V217.085Z" fill="black"/>
<path d="M24.5369 57.3C28.4002 57.3 31.7552 57.9507 34.6019 59.252C37.4486 60.5127 39.6446 62.3427 41.1899 64.742C42.7352 67.1007 43.5079 69.8863 43.5079 73.099C43.5079 76.3117 42.7352 79.0973 41.1899 81.456C39.6446 83.8147 37.4486 85.6447 34.6019 86.946C31.7552 88.2067 28.4002 88.837 24.5369 88.837H17.0949V100H5.01689V57.3H24.5369ZM23.8049 79.321C26.2856 79.321 28.1562 78.7923 29.4169 77.735C30.6776 76.637 31.3079 75.0917 31.3079 73.099C31.3079 71.1063 30.6776 69.561 29.4169 68.463C28.1562 67.365 26.2856 66.816 23.8049 66.816H17.0949V79.321H23.8049ZM83.2618 90.667V100H48.9798V57.3H82.4688V66.633H60.9358V73.831H79.9068V82.859H60.9358V90.667H83.2618ZM130.769 57.3V100H118.691V83.347H102.221V100H90.1429V57.3H102.221V73.343H118.691V57.3H130.769ZM185.697 90.423V108.601H174.656V100H147.328V108.601H136.226V90.423H137.751C140.272 90.3823 142.041 88.654 143.058 85.238C144.115 81.822 144.766 76.9013 145.01 70.476L145.498 57.3H179.902V90.423H185.697ZM155.563 71.513C155.4 76.0677 155.034 79.931 154.465 83.103C153.895 86.275 153.021 88.715 151.842 90.423H168.007V66.877H155.746L155.563 71.513ZM225.754 90.667V100H191.472V57.3H224.961V66.633H203.428V73.831H222.399V82.859H203.428V90.667H225.754ZM252.155 57.3C256.018 57.3 259.373 57.9507 262.22 59.252C265.067 60.5127 267.263 62.3427 268.808 64.742C270.353 67.1007 271.126 69.8863 271.126 73.099C271.126 76.3117 270.353 79.0973 268.808 81.456C267.263 83.8147 265.067 85.6447 262.22 86.946C259.373 88.2067 256.018 88.837 252.155 88.837H244.713V100H232.635V57.3H252.155ZM251.423 79.321C253.904 79.321 255.774 78.7923 257.035 77.735C258.296 76.637 258.926 75.0917 258.926 73.099C258.926 71.1063 258.296 69.561 257.035 68.463C255.774 67.365 253.904 66.816 251.423 66.816H244.713V79.321H251.423ZM276.598 57.3H288.493V82.371L306.122 57.3H317.468V100H305.573V74.99L288.005 100H276.598V57.3ZM367.263 57.3V100H355.185V83.347H338.715V100H326.637V57.3H338.715V73.343H355.185V57.3H367.263ZM407.67 66.877H388.333V100H376.438V57.3H407.731L407.67 66.877Z" fill="#A3B1D7"/>
<path d="M237.556 117.8V150H228.632L216.396 135.372V150H205.816V117.8H214.74L226.976 132.428V117.8H237.556ZM277.195 117.8L263.579 150H252.907L239.291 117.8H250.975L258.657 136.614L266.523 117.8H277.195ZM305.047 141.812V150H278.275V117.8H304.449V125.988H288.947V129.76H302.563V137.58H288.947V141.812H305.047ZM340.966 117.8V150H332.042L319.806 135.372V150H309.226V117.8H318.15L330.386 132.428V117.8H340.966ZM362.849 150.736C359.445 150.736 356.379 150.031 353.649 148.62C350.92 147.179 348.773 145.185 347.209 142.64C345.676 140.064 344.909 137.151 344.909 133.9C344.909 130.649 345.676 127.751 347.209 125.206C348.773 122.63 350.92 120.637 353.649 119.226C356.379 117.785 359.445 117.064 362.849 117.064C365.977 117.064 368.768 117.616 371.221 118.72C373.675 119.824 375.699 121.419 377.293 123.504L370.439 129.622C368.446 127.107 366.1 125.85 363.401 125.85C361.132 125.85 359.307 126.586 357.927 128.058C356.547 129.499 355.857 131.447 355.857 133.9C355.857 136.353 356.547 138.316 357.927 139.788C359.307 141.229 361.132 141.95 363.401 141.95C366.1 141.95 368.446 140.693 370.439 138.178L377.293 144.296C375.699 146.381 373.675 147.976 371.221 149.08C368.768 150.184 365.977 150.736 362.849 150.736Z" fill="#04488F"/>
<path d="M87.6968 136L84.3748 131.27C83.9642 131.299 83.6415 131.314 83.4068 131.314H79.6008V136H77.4008V120.6H83.4068C85.4015 120.6 86.9708 121.077 88.1148 122.03C89.2588 122.983 89.8308 124.296 89.8308 125.968C89.8308 127.156 89.5375 128.168 88.9508 129.004C88.3642 129.84 87.5282 130.449 86.4428 130.83L90.0948 136H87.6968ZM83.3408 129.444C84.7342 129.444 85.7975 129.143 86.5308 128.542C87.2642 127.941 87.6308 127.083 87.6308 125.968C87.6308 124.853 87.2642 124.003 86.5308 123.416C85.7975 122.815 84.7342 122.514 83.3408 122.514H79.6008V129.444H83.3408ZM96.2284 122.514H90.9484V120.6H103.686V122.514H98.4064V136H96.2284V122.514ZM115.096 136L110.476 129.642L105.922 136H103.392L109.178 128.102L103.744 120.6H106.252L110.564 126.518L114.832 120.6H117.23L111.796 128.036L117.626 136H115.096ZM139.503 120.6L132.749 136H130.571L123.795 120.6H126.171L131.715 133.25L137.303 120.6H139.503ZM148.247 136.176C146.693 136.176 145.292 135.839 144.045 135.164C142.799 134.475 141.816 133.529 141.097 132.326C140.393 131.123 140.041 129.781 140.041 128.3C140.041 126.819 140.393 125.477 141.097 124.274C141.816 123.071 142.799 122.133 144.045 121.458C145.292 120.769 146.693 120.424 148.247 120.424C149.787 120.424 151.181 120.769 152.427 121.458C153.674 122.133 154.649 123.071 155.353 124.274C156.057 125.462 156.409 126.804 156.409 128.3C156.409 129.796 156.057 131.145 155.353 132.348C154.649 133.536 153.674 134.475 152.427 135.164C151.181 135.839 149.787 136.176 148.247 136.176ZM148.247 134.218C149.377 134.218 150.389 133.961 151.283 133.448C152.193 132.935 152.904 132.231 153.417 131.336C153.945 130.427 154.209 129.415 154.209 128.3C154.209 127.185 153.945 126.181 153.417 125.286C152.904 124.377 152.193 123.665 151.283 123.152C150.389 122.639 149.377 122.382 148.247 122.382C147.118 122.382 146.091 122.639 145.167 123.152C144.258 123.665 143.539 124.377 143.011 125.286C142.498 126.181 142.241 127.185 142.241 128.3C142.241 129.415 142.498 130.427 143.011 131.336C143.539 132.231 144.258 132.935 145.167 133.448C146.091 133.961 147.118 134.218 148.247 134.218ZM159.772 120.6H161.972V136H159.772V120.6ZM173.468 136.176C171.928 136.176 170.535 135.839 169.288 135.164C168.056 134.475 167.088 133.536 166.384 132.348C165.68 131.145 165.328 129.796 165.328 128.3C165.328 126.804 165.68 125.462 166.384 124.274C167.088 123.071 168.064 122.133 169.31 121.458C170.557 120.769 171.95 120.424 173.49 120.424C174.693 120.424 175.793 120.629 176.79 121.04C177.788 121.436 178.638 122.03 179.342 122.822L177.912 124.208C176.754 122.991 175.309 122.382 173.578 122.382C172.434 122.382 171.4 122.639 170.476 123.152C169.552 123.665 168.826 124.377 168.298 125.286C167.785 126.181 167.528 127.185 167.528 128.3C167.528 129.415 167.785 130.427 168.298 131.336C168.826 132.231 169.552 132.935 170.476 133.448C171.4 133.961 172.434 134.218 173.578 134.218C175.294 134.218 176.739 133.602 177.912 132.37L179.342 133.756C178.638 134.548 177.78 135.149 176.768 135.56C175.771 135.971 174.671 136.176 173.468 136.176ZM193.657 134.086V136H182.481V120.6H193.349V122.514H184.681V127.244H192.403V129.114H184.681V134.086H193.657Z" fill="black"/>
<path d="M335.415 34.212H337.527V40.218C336.764 40.8487 335.877 41.3327 334.865 41.67C333.853 42.0073 332.797 42.176 331.697 42.176C330.142 42.176 328.741 41.8387 327.495 41.164C326.248 40.4747 325.265 39.536 324.547 38.348C323.843 37.1453 323.491 35.796 323.491 34.3C323.491 32.804 323.843 31.4547 324.547 30.252C325.265 29.0493 326.248 28.1107 327.495 27.436C328.756 26.7613 330.171 26.424 331.741 26.424C332.973 26.424 334.087 26.6293 335.085 27.04C336.097 27.436 336.955 28.0227 337.659 28.8L336.295 30.164C335.063 28.976 333.574 28.382 331.829 28.382C330.655 28.382 329.599 28.6387 328.661 29.152C327.737 29.6507 327.011 30.3547 326.483 31.264C325.955 32.1587 325.691 33.1707 325.691 34.3C325.691 35.4147 325.955 36.4267 326.483 37.336C327.011 38.2307 327.737 38.9347 328.661 39.448C329.599 39.9613 330.648 40.218 331.807 40.218C333.185 40.218 334.388 39.888 335.415 39.228V34.212ZM340.683 35.048H346.601V36.874H340.683V35.048ZM354.283 42.176C353.125 42.176 352.003 42 350.917 41.648C349.847 41.2813 349.003 40.812 348.387 40.24L349.201 38.524C349.788 39.052 350.536 39.4847 351.445 39.822C352.369 40.1447 353.315 40.306 354.283 40.306C355.559 40.306 356.513 40.0933 357.143 39.668C357.774 39.228 358.089 38.6487 358.089 37.93C358.089 37.402 357.913 36.9767 357.561 36.654C357.224 36.3167 356.799 36.06 356.285 35.884C355.787 35.708 355.075 35.51 354.151 35.29C352.993 35.0113 352.054 34.7327 351.335 34.454C350.631 34.1753 350.023 33.75 349.509 33.178C349.011 32.5913 348.761 31.8067 348.761 30.824C348.761 30.0027 348.974 29.262 349.399 28.602C349.839 27.942 350.499 27.414 351.379 27.018C352.259 26.622 353.352 26.424 354.657 26.424C355.567 26.424 356.461 26.5413 357.341 26.776C358.221 27.0107 358.977 27.348 359.607 27.788L358.881 29.548C358.236 29.1373 357.547 28.8293 356.813 28.624C356.08 28.404 355.361 28.294 354.657 28.294C353.411 28.294 352.472 28.5213 351.841 28.976C351.225 29.4307 350.917 30.0173 350.917 30.736C350.917 31.264 351.093 31.6967 351.445 32.034C351.797 32.3567 352.23 32.6133 352.743 32.804C353.271 32.98 353.983 33.1707 354.877 33.376C356.036 33.6547 356.967 33.9333 357.671 34.212C358.375 34.4907 358.977 34.916 359.475 35.488C359.989 36.06 360.245 36.83 360.245 37.798C360.245 38.6047 360.025 39.3453 359.585 40.02C359.145 40.68 358.478 41.208 357.583 41.604C356.689 41.9853 355.589 42.176 354.283 42.176ZM369.033 36.676V42H366.855V36.632L360.739 26.6H363.093L368.021 34.718L372.971 26.6H375.149L369.033 36.676ZM390.367 26.6V42H388.563L379.323 30.516V42H377.123V26.6H378.927L388.167 38.084V26.6H390.367ZM401.863 42.176C400.323 42.176 398.93 41.8387 397.683 41.164C396.451 40.4747 395.483 39.536 394.779 38.348C394.075 37.1453 393.723 35.796 393.723 34.3C393.723 32.804 394.075 31.462 394.779 30.274C395.483 29.0713 396.458 28.1327 397.705 27.458C398.952 26.7687 400.345 26.424 401.885 26.424C403.088 26.424 404.188 26.6293 405.185 27.04C406.182 27.436 407.033 28.03 407.737 28.822L406.307 30.208C405.148 28.9907 403.704 28.382 401.973 28.382C400.829 28.382 399.795 28.6387 398.871 29.152C397.947 29.6653 397.221 30.3767 396.693 31.286C396.18 32.1807 395.923 33.1853 395.923 34.3C395.923 35.4147 396.18 36.4267 396.693 37.336C397.221 38.2307 397.947 38.9347 398.871 39.448C399.795 39.9613 400.829 40.218 401.973 40.218C403.689 40.218 405.134 39.602 406.307 38.37L407.737 39.756C407.033 40.548 406.175 41.1493 405.163 41.56C404.166 41.9707 403.066 42.176 401.863 42.176Z" fill="black"/>
<path d="M275.046 186.75H263.671L261.501 192H255.691L266.611 167.5H272.211L283.166 192H277.216L275.046 186.75ZM273.261 182.445L269.376 173.065L265.491 182.445H273.261ZM308.178 167.5V192H303.523L291.308 177.125V192H285.708V167.5H290.398L302.578 182.375V167.5H308.178ZM322.025 192.42C320.088 192.42 318.21 192.163 316.39 191.65C314.593 191.113 313.146 190.425 312.05 189.585L313.975 185.315C315.025 186.085 316.273 186.703 317.72 187.17C319.166 187.637 320.613 187.87 322.06 187.87C323.67 187.87 324.86 187.637 325.63 187.17C326.4 186.68 326.785 186.038 326.785 185.245C326.785 184.662 326.551 184.183 326.085 183.81C325.641 183.413 325.058 183.098 324.335 182.865C323.635 182.632 322.678 182.375 321.465 182.095C319.598 181.652 318.07 181.208 316.88 180.765C315.69 180.322 314.663 179.61 313.8 178.63C312.96 177.65 312.54 176.343 312.54 174.71C312.54 173.287 312.925 172.003 313.695 170.86C314.465 169.693 315.62 168.772 317.16 168.095C318.723 167.418 320.625 167.08 322.865 167.08C324.428 167.08 325.956 167.267 327.45 167.64C328.943 168.013 330.25 168.55 331.37 169.25L329.62 173.555C327.356 172.272 325.093 171.63 322.83 171.63C321.243 171.63 320.065 171.887 319.295 172.4C318.548 172.913 318.175 173.59 318.175 174.43C318.175 175.27 318.606 175.9 319.47 176.32C320.356 176.717 321.698 177.113 323.495 177.51C325.361 177.953 326.89 178.397 328.08 178.84C329.27 179.283 330.285 179.983 331.125 180.94C331.988 181.897 332.42 183.192 332.42 184.825C332.42 186.225 332.023 187.508 331.23 188.675C330.46 189.818 329.293 190.728 327.73 191.405C326.166 192.082 324.265 192.42 322.025 192.42ZM355.264 187.45V192H336.294V167.5H354.809V172.05H341.929V177.37H353.304V181.78H341.929V187.45H355.264ZM359.776 167.5H365.446V187.38H377.731V192H359.776V167.5Z" fill="black"/>
<path d="M468.336 182L455.037 162.935C454.479 162.997 453.642 163.028 452.526 163.028H437.832V182H425.742V116.9H452.526C458.168 116.9 463.066 117.83 467.22 119.69C471.436 121.55 474.66 124.216 476.892 127.688C479.124 131.16 480.24 135.283 480.24 140.057C480.24 144.955 479.031 149.171 476.613 152.705C474.257 156.239 470.847 158.874 466.383 160.61L481.356 182H468.336ZM468.057 140.057C468.057 135.903 466.693 132.71 463.965 130.478C461.237 128.246 457.238 127.13 451.968 127.13H437.832V153.077H451.968C457.238 153.077 461.237 151.961 463.965 149.729C466.693 147.435 468.057 144.211 468.057 140.057ZM542.591 171.863V182H493.766V116.9H541.289V127.037H505.856V143.963H537.29V153.914H505.856V171.863H542.591ZM568.159 127.037V146.846H599.593V157.076H568.159V182H556.069V116.9H603.592V127.037H568.159ZM615.284 116.9H627.374V171.77H661.412V182H615.284V116.9ZM719.782 171.863V182H670.957V116.9H718.48V127.037H683.047V143.963H714.481V153.914H683.047V171.863H719.782ZM773.546 182L755.876 157.262L738.392 182H724.628L748.808 148.799L725.93 116.9H739.601L756.248 140.057L772.709 116.9H785.822L763.037 148.334L787.496 182H773.546Z" fill="#04488F"/>
<path d="M804.24 115.6H814.832C817.285 115.6 819.461 116.059 821.36 116.976C823.259 117.893 824.731 119.195 825.776 120.88C826.821 122.565 827.344 124.539 827.344 126.8C827.344 129.061 826.821 131.035 825.776 132.72C824.731 134.405 823.259 135.707 821.36 136.624C819.461 137.541 817.285 138 814.832 138H804.24V115.6ZM814.576 132.944C816.496 132.944 818.032 132.4 819.184 131.312C820.357 130.224 820.944 128.72 820.944 126.8C820.944 124.88 820.357 123.376 819.184 122.288C818.032 121.2 816.496 120.656 814.576 120.656H810.576V132.944H814.576ZM830.678 115.6H837.014V132.976H847.702V138H830.678V115.6ZM858.018 138.448C856.205 138.448 854.445 138.224 852.738 137.776C851.032 137.328 849.645 136.731 848.578 135.984L850.658 131.312C851.661 131.973 852.824 132.507 854.146 132.912C855.469 133.317 856.77 133.52 858.05 133.52C860.482 133.52 861.698 132.912 861.698 131.696C861.698 131.056 861.346 130.587 860.642 130.288C859.96 129.968 858.85 129.637 857.314 129.296C855.629 128.933 854.221 128.549 853.09 128.144C851.96 127.717 850.989 127.045 850.178 126.128C849.368 125.211 848.962 123.973 848.962 122.416C848.962 121.051 849.336 119.824 850.082 118.736C850.829 117.627 851.938 116.752 853.41 116.112C854.904 115.472 856.728 115.152 858.882 115.152C860.354 115.152 861.805 115.323 863.234 115.664C864.664 115.984 865.922 116.464 867.01 117.104L865.058 121.808C862.925 120.656 860.856 120.08 858.85 120.08C857.592 120.08 856.674 120.272 856.098 120.656C855.522 121.019 855.234 121.499 855.234 122.096C855.234 122.693 855.576 123.141 856.258 123.44C856.941 123.739 858.04 124.048 859.554 124.368C861.261 124.731 862.669 125.125 863.778 125.552C864.909 125.957 865.88 126.619 866.69 127.536C867.522 128.432 867.938 129.659 867.938 131.216C867.938 132.56 867.565 133.776 866.818 134.864C866.072 135.952 864.952 136.827 863.458 137.488C861.965 138.128 860.152 138.448 858.018 138.448ZM878.737 138.448C876.924 138.448 875.164 138.224 873.457 137.776C871.75 137.328 870.364 136.731 869.297 135.984L871.377 131.312C872.38 131.973 873.542 132.507 874.865 132.912C876.188 133.317 877.489 133.52 878.769 133.52C881.201 133.52 882.417 132.912 882.417 131.696C882.417 131.056 882.065 130.587 881.361 130.288C880.678 129.968 879.569 129.637 878.033 129.296C876.348 128.933 874.94 128.549 873.809 128.144C872.678 127.717 871.708 127.045 870.897 126.128C870.086 125.211 869.681 123.973 869.681 122.416C869.681 121.051 870.054 119.824 870.801 118.736C871.548 117.627 872.657 116.752 874.129 116.112C875.622 115.472 877.446 115.152 879.601 115.152C881.073 115.152 882.524 115.323 883.953 115.664C885.382 115.984 886.641 116.464 887.729 117.104L885.777 121.808C883.644 120.656 881.574 120.08 879.569 120.08C878.31 120.08 877.393 120.272 876.817 120.656C876.241 121.019 875.953 121.499 875.953 122.096C875.953 122.693 876.294 123.141 876.977 123.44C877.66 123.739 878.758 124.048 880.273 124.368C881.98 124.731 883.388 125.125 884.497 125.552C885.628 125.957 886.598 126.619 887.409 127.536C888.241 128.432 888.657 129.659 888.657 131.216C888.657 132.56 888.284 133.776 887.537 134.864C886.79 135.952 885.67 136.827 884.177 137.488C882.684 138.128 880.87 138.448 878.737 138.448Z" fill="#A3B1D7"/>
<path d="M916.504 138.256C914.264 138.256 912.237 137.765 910.424 136.784C908.632 135.781 907.224 134.416 906.2 132.688C905.176 130.939 904.664 128.976 904.664 126.8C904.664 124.624 905.176 122.672 906.2 120.944C907.224 119.195 908.643 117.829 910.456 116.848C912.269 115.845 914.296 115.344 916.536 115.344C918.285 115.344 919.885 115.643 921.336 116.24C922.787 116.816 924.024 117.68 925.048 118.832L922.968 120.848C921.283 119.077 919.181 118.192 916.664 118.192C915 118.192 913.496 118.565 912.152 119.312C910.808 120.059 909.752 121.093 908.984 122.416C908.237 123.717 907.864 125.179 907.864 126.8C907.864 128.421 908.237 129.893 908.984 131.216C909.752 132.517 910.808 133.541 912.152 134.288C913.496 135.035 915 135.408 916.664 135.408C919.16 135.408 921.261 134.512 922.968 132.72L925.048 134.736C924.024 135.888 922.776 136.763 921.304 137.36C919.853 137.957 918.253 138.256 916.504 138.256ZM944.599 118.384H936.919V138H933.783V118.384H926.135V115.6H944.599V118.384ZM957.224 115.6C960.125 115.6 962.408 116.293 964.072 117.68C965.736 119.067 966.568 120.976 966.568 123.408C966.568 125.84 965.736 127.749 964.072 129.136C962.408 130.523 960.125 131.216 957.224 131.216H951.688V138H948.488V115.6H957.224ZM957.128 128.432C959.155 128.432 960.701 128.005 961.768 127.152C962.835 126.277 963.368 125.029 963.368 123.408C963.368 121.787 962.835 120.549 961.768 119.696C960.701 118.821 959.155 118.384 957.128 118.384H951.688V128.432H957.128ZM971.019 115.6H974.187V132.88L987.435 115.6H990.379V138H987.243V120.752L973.963 138H971.019V115.6ZM1018.13 138L1018.1 121.68L1010 135.28H1008.53L1000.44 121.776V138H997.363V115.6H999.987L1009.33 131.344L1018.55 115.6H1021.17L1021.2 138H1018.13ZM1028.18 115.6H1031.34V132.88L1044.59 115.6H1047.54V138H1044.4V120.752L1031.12 138H1028.18V115.6ZM1073.78 115.6V138H1070.58V128.016H1057.72V138H1054.52V115.6H1057.72V125.232H1070.58V115.6H1073.78ZM1095.43 118.384H1083.91L1083.94 138H1080.77V115.6H1095.46L1095.43 118.384Z" fill="black"/>
<path d="M439.88 80.384H432.2V100H429.064V80.384H421.416V77.6H439.88V80.384ZM457.721 88.384C459.236 88.7467 460.377 89.3973 461.145 90.336C461.935 91.2533 462.329 92.4373 462.329 93.888C462.329 95.8293 461.615 97.3333 460.185 98.4C458.777 99.4667 456.719 100 454.009 100H443.769V77.6H453.401C455.855 77.6 457.764 78.1013 459.129 79.104C460.516 80.0853 461.209 81.504 461.209 83.36C461.209 84.576 460.9 85.6107 460.281 86.464C459.684 87.3173 458.831 87.9573 457.721 88.384ZM446.937 87.456H453.177C454.735 87.456 455.919 87.1467 456.729 86.528C457.561 85.9093 457.977 85.0027 457.977 83.808C457.977 82.6133 457.561 81.7067 456.729 81.088C455.897 80.448 454.713 80.128 453.177 80.128H446.937V87.456ZM453.945 97.472C457.38 97.472 459.097 96.192 459.097 93.632C459.097 92.352 458.66 91.4133 457.785 90.816C456.932 90.1973 455.652 89.888 453.945 89.888H446.937V97.472H453.945ZM477.756 100.256C475.494 100.256 473.457 99.7653 471.644 98.784C469.83 97.7813 468.401 96.4053 467.356 94.656C466.332 92.9067 465.82 90.9547 465.82 88.8C465.82 86.6453 466.332 84.6933 467.356 82.944C468.401 81.1947 469.83 79.8293 471.644 78.848C473.457 77.8453 475.494 77.344 477.756 77.344C479.996 77.344 482.022 77.8453 483.836 78.848C485.649 79.8293 487.068 81.1947 488.092 82.944C489.116 84.672 489.628 86.624 489.628 88.8C489.628 90.976 489.116 92.9387 488.092 94.688C487.068 96.416 485.649 97.7813 483.836 98.784C482.022 99.7653 479.996 100.256 477.756 100.256ZM477.756 97.408C479.398 97.408 480.87 97.0347 482.172 96.288C483.494 95.5413 484.529 94.5173 485.276 93.216C486.044 91.8933 486.428 90.4213 486.428 88.8C486.428 87.1787 486.044 85.7173 485.276 84.416C484.529 83.0933 483.494 82.0587 482.172 81.312C480.87 80.5653 479.398 80.192 477.756 80.192C476.113 80.192 474.62 80.5653 473.276 81.312C471.953 82.0587 470.908 83.0933 470.14 84.416C469.393 85.7173 469.02 87.1787 469.02 88.8C469.02 90.4213 469.393 91.8933 470.14 93.216C470.908 94.5173 471.953 95.5413 473.276 96.288C474.62 97.0347 476.113 97.408 477.756 97.408ZM503.537 77.6C506.438 77.6 508.721 78.2933 510.385 79.68C512.049 81.0667 512.881 82.976 512.881 85.408C512.881 87.84 512.049 89.7493 510.385 91.136C508.721 92.5227 506.438 93.216 503.537 93.216H498.001V100H494.801V77.6H503.537ZM503.441 90.432C505.467 90.432 507.014 90.0053 508.081 89.152C509.147 88.2773 509.681 87.0293 509.681 85.408C509.681 83.7867 509.147 82.5493 508.081 81.696C507.014 80.8213 505.467 80.384 503.441 80.384H498.001V90.432H503.441ZM533.658 77.6V100H530.49V91.136C528.122 92.0533 525.935 92.512 523.93 92.512C521.199 92.512 519.076 91.8507 517.562 90.528C516.068 89.2053 515.322 87.3173 515.322 84.864V77.6H518.458V84.512C518.458 86.176 518.959 87.456 519.962 88.352C520.986 89.248 522.426 89.696 524.282 89.696C526.351 89.696 528.42 89.2267 530.49 88.288V77.6H533.658ZM556.9 97.216V100H540.644V77.6H556.452V80.384H543.844V87.264H555.076V89.984H543.844V97.216H556.9ZM571.848 100.256C569.608 100.256 567.581 99.7653 565.768 98.784C563.976 97.7813 562.568 96.416 561.544 94.688C560.52 92.9387 560.008 90.976 560.008 88.8C560.008 86.624 560.52 84.672 561.544 82.944C562.568 81.1947 563.986 79.8293 565.8 78.848C567.613 77.8453 569.64 77.344 571.88 77.344C573.629 77.344 575.229 77.6427 576.68 78.24C578.13 78.816 579.368 79.68 580.392 80.832L578.312 82.848C576.626 81.0773 574.525 80.192 572.008 80.192C570.344 80.192 568.84 80.5653 567.496 81.312C566.152 82.0587 565.096 83.0933 564.328 84.416C563.581 85.7173 563.208 87.1787 563.208 88.8C563.208 90.4213 563.581 91.8933 564.328 93.216C565.096 94.5173 566.152 95.5413 567.496 96.288C568.84 97.0347 570.344 97.408 572.008 97.408C574.504 97.408 576.605 96.512 578.312 94.72L580.392 96.736C579.368 97.888 578.12 98.7627 576.648 99.36C575.197 99.9573 573.597 100.256 571.848 100.256ZM599.943 80.384H592.263V100H589.127V80.384H581.479V77.6H599.943V80.384ZM617.784 88.384C619.298 88.7467 620.44 89.3973 621.208 90.336C621.997 91.2533 622.392 92.4373 622.392 93.888C622.392 95.8293 621.677 97.3333 620.248 98.4C618.84 99.4667 616.781 100 614.072 100H603.832V77.6H613.464C615.917 77.6 617.826 78.1013 619.192 79.104C620.578 80.0853 621.272 81.504 621.272 83.36C621.272 84.576 620.962 85.6107 620.344 86.464C619.746 87.3173 618.893 87.9573 617.784 88.384ZM607 87.456H613.24C614.797 87.456 615.981 87.1467 616.792 86.528C617.624 85.9093 618.04 85.0027 618.04 83.808C618.04 82.6133 617.624 81.7067 616.792 81.088C615.96 80.448 614.776 80.128 613.24 80.128H607V87.456ZM614.008 97.472C617.442 97.472 619.16 96.192 619.16 93.632C619.16 92.352 618.722 91.4133 617.848 90.816C616.994 90.1973 615.714 89.888 614.008 89.888H607V97.472H614.008ZM637.818 100.256C635.557 100.256 633.519 99.7653 631.706 98.784C629.893 97.7813 628.463 96.4053 627.418 94.656C626.394 92.9067 625.882 90.9547 625.882 88.8C625.882 86.6453 626.394 84.6933 627.418 82.944C628.463 81.1947 629.893 79.8293 631.706 78.848C633.519 77.8453 635.557 77.344 637.818 77.344C640.058 77.344 642.085 77.8453 643.898 78.848C645.711 79.8293 647.13 81.1947 648.154 82.944C649.178 84.672 649.69 86.624 649.69 88.8C649.69 90.976 649.178 92.9387 648.154 94.688C647.13 96.416 645.711 97.7813 643.898 98.784C642.085 99.7653 640.058 100.256 637.818 100.256ZM637.818 97.408C639.461 97.408 640.933 97.0347 642.234 96.288C643.557 95.5413 644.591 94.5173 645.338 93.216C646.106 91.8933 646.49 90.4213 646.49 88.8C646.49 87.1787 646.106 85.7173 645.338 84.416C644.591 83.0933 643.557 82.0587 642.234 81.312C640.933 80.5653 639.461 80.192 637.818 80.192C636.175 80.192 634.682 80.5653 633.338 81.312C632.015 82.0587 630.97 83.0933 630.202 84.416C629.455 85.7173 629.082 87.1787 629.082 88.8C629.082 90.4213 629.455 91.8933 630.202 93.216C630.97 94.5173 632.015 95.5413 633.338 96.288C634.682 97.0347 636.175 97.408 637.818 97.408Z" fill="black"/>
<path d="M404.1 227.572L404.1 237.988L409 240.144L409 243.028L389.4 234.152L389.4 231.38L409 222.476L409 225.416L404.1 227.572ZM401.86 228.552L392.256 232.78L401.86 237.008L401.86 228.552ZM409 201.38L394.72 201.408L406.62 208.492L406.62 209.78L394.804 216.864L409 216.864L409 219.552L389.4 219.552L389.4 217.256L403.176 209.08L389.4 201.016L389.4 198.72L409 198.692L409 201.38ZM389.4 185.166C389.4 182.627 390.007 180.63 391.22 179.174C392.433 177.718 394.104 176.99 396.232 176.99C398.36 176.99 400.031 177.718 401.244 179.174C402.457 180.63 403.064 182.627 403.064 185.166L403.064 190.01L409 190.01L409 192.81L389.4 192.81L389.4 185.166ZM400.628 185.25C400.628 183.477 400.255 182.123 399.508 181.19C398.743 180.257 397.651 179.79 396.232 179.79C394.813 179.79 393.731 180.257 392.984 181.19C392.219 182.123 391.836 183.477 391.836 185.25L391.836 190.01L400.628 190.01L400.628 185.25ZM406.564 158.652L409 158.652L409 172.876L389.4 172.876L389.4 159.044L391.836 159.044L391.836 170.076L397.856 170.076L397.856 160.248L400.236 160.248L400.236 170.076L406.564 170.076L406.564 158.652ZM409 141.015L402.98 145.243C403.017 145.765 403.036 146.176 403.036 146.475L403.036 151.319L409 151.319L409 154.119L389.4 154.119L389.4 146.475C389.4 143.936 390.007 141.939 391.22 140.483C392.433 139.027 394.104 138.299 396.232 138.299C397.744 138.299 399.032 138.672 400.096 139.419C401.16 140.165 401.935 141.229 402.42 142.611L409 137.963L409 141.015ZM400.656 146.559C400.656 144.785 400.273 143.432 399.508 142.499C398.743 141.565 397.651 141.099 396.232 141.099C394.813 141.099 393.731 141.565 392.984 142.499C392.219 143.432 391.836 144.785 391.836 146.559L391.836 151.319L400.656 151.319L400.656 146.559ZM406.564 119.551L409 119.551L409 133.775L389.4 133.775L389.4 119.943L391.836 119.943L391.836 130.975L397.856 130.975L397.856 121.147L400.236 121.147L400.236 130.975L406.564 130.975L406.564 119.551Z" fill="#04488F"/>
<path d="M703.088 77.735C705.528 78.589 707.439 79.931 708.822 81.761C710.205 83.5503 710.896 85.726 710.896 88.288C710.896 92.0293 709.391 94.9167 706.382 96.95C703.373 98.9833 699.021 100 693.328 100H670.27V57.3H692.108C697.557 57.3 701.705 58.3167 704.552 60.35C707.399 62.3427 708.822 65.047 708.822 68.463C708.822 70.4963 708.314 72.3263 707.297 73.953C706.321 75.539 704.918 76.7997 703.088 77.735ZM682.226 66.023V74.258H690.522C694.589 74.258 696.622 72.8753 696.622 70.11C696.622 67.3853 694.589 66.023 690.522 66.023H682.226ZM692.352 91.277C696.581 91.277 698.696 89.8333 698.696 86.946C698.696 84.0587 696.581 82.615 692.352 82.615H682.226V91.277H692.352ZM735.818 88.654H729.23V100H717.152V57.3H736.672C740.535 57.3 743.89 57.9507 746.737 59.252C749.584 60.5127 751.78 62.3427 753.325 64.742C754.87 67.1007 755.643 69.8863 755.643 73.099C755.643 76.1897 754.911 78.894 753.447 81.212C752.024 83.4893 749.97 85.2787 747.286 86.58L756.497 100H743.565L735.818 88.654ZM743.443 73.099C743.443 71.1063 742.813 69.561 741.552 68.463C740.291 67.365 738.421 66.816 735.94 66.816H729.23V79.321H735.94C738.421 79.321 740.291 78.7923 741.552 77.735C742.813 76.637 743.443 75.0917 743.443 73.099ZM783.839 100.854C779.325 100.854 775.258 99.8983 771.639 97.987C768.06 96.0757 765.234 93.4323 763.16 90.057C761.127 86.6817 760.11 82.8793 760.11 78.65C760.11 74.4207 761.127 70.6183 763.16 67.243C765.234 63.8677 768.06 61.2243 771.639 59.313C775.258 57.4017 779.325 56.446 783.839 56.446C788.353 56.446 792.399 57.4017 795.978 59.313C799.597 61.2243 802.424 63.8677 804.457 67.243C806.531 70.6183 807.568 74.4207 807.568 78.65C807.568 82.8793 806.531 86.6817 804.457 90.057C802.424 93.4323 799.597 96.0757 795.978 97.987C792.399 99.8983 788.353 100.854 783.839 100.854ZM783.839 90.85C785.994 90.85 787.946 90.3417 789.695 89.325C791.444 88.3083 792.826 86.885 793.843 85.055C794.86 83.1843 795.368 81.0493 795.368 78.65C795.368 76.2507 794.86 74.136 793.843 72.306C792.826 70.4353 791.444 68.9917 789.695 67.975C787.946 66.9583 785.994 66.45 783.839 66.45C781.684 66.45 779.732 66.9583 777.983 67.975C776.234 68.9917 774.852 70.4353 773.835 72.306C772.818 74.136 772.31 76.2507 772.31 78.65C772.31 81.0493 772.818 83.1843 773.835 85.055C774.852 86.885 776.234 88.3083 777.983 89.325C779.732 90.3417 781.684 90.85 783.839 90.85ZM841.907 91.704H823.851L820.496 100H808.174L827.023 57.3H838.918L857.828 100H845.262L841.907 91.704ZM838.369 82.798L832.879 69.134L827.389 82.798H838.369ZM861.252 57.3H881.443C886.12 57.3 890.268 58.1743 893.887 59.923C897.507 61.6717 900.313 64.1523 902.305 67.365C904.298 70.5777 905.294 74.3393 905.294 78.65C905.294 82.9607 904.298 86.7223 902.305 89.935C900.313 93.1477 897.507 95.6283 893.887 97.377C890.268 99.1257 886.12 100 881.443 100H861.252V57.3ZM880.955 90.362C884.615 90.362 887.543 89.325 889.739 87.251C891.976 85.177 893.094 82.31 893.094 78.65C893.094 74.99 891.976 72.123 889.739 70.049C887.543 67.975 884.615 66.938 880.955 66.938H873.33V90.362H880.955ZM932.938 100.854C928.465 100.854 924.439 99.9187 920.86 98.048C917.322 96.1367 914.536 93.4933 912.503 90.118C910.47 86.7427 909.453 82.92 909.453 78.65C909.453 74.38 910.47 70.5573 912.503 67.182C914.536 63.8067 917.322 61.1837 920.86 59.313C924.439 57.4017 928.465 56.446 932.938 56.446C936.842 56.446 940.36 57.1373 943.491 58.52C946.622 59.9027 949.225 61.8953 951.299 64.498L943.613 71.452C940.848 68.1173 937.493 66.45 933.548 66.45C931.23 66.45 929.156 66.9583 927.326 67.975C925.537 68.9917 924.134 70.4353 923.117 72.306C922.141 74.136 921.653 76.2507 921.653 78.65C921.653 81.0493 922.141 83.1843 923.117 85.055C924.134 86.885 925.537 88.3083 927.326 89.325C929.156 90.3417 931.23 90.85 933.548 90.85C937.493 90.85 940.848 89.1827 943.613 85.848L951.299 92.802C949.225 95.4047 946.622 97.3973 943.491 98.78C940.36 100.163 936.842 100.854 932.938 100.854ZM984.578 91.704H966.522L963.167 100H950.845L969.694 57.3H981.589L1000.5 100H987.933L984.578 91.704ZM981.04 82.798L975.55 69.134L970.06 82.798H981.04ZM1018.93 100.854C1015.47 100.854 1012.12 100.427 1008.86 99.573C1005.61 98.719 1002.97 97.5803 1000.93 96.157L1004.9 87.251C1006.81 88.5117 1009.03 89.5283 1011.55 90.301C1014.07 91.0737 1016.55 91.46 1018.99 91.46C1023.63 91.46 1025.94 90.301 1025.94 87.983C1025.94 86.763 1025.27 85.8683 1023.93 85.299C1022.63 84.689 1020.52 84.0587 1017.59 83.408C1014.37 82.7167 1011.69 81.9847 1009.54 81.212C1007.38 80.3987 1005.53 79.1177 1003.98 77.369C1002.44 75.6203 1001.67 73.2617 1001.67 70.293C1001.67 67.6903 1002.38 65.352 1003.8 63.278C1005.22 61.1633 1007.34 59.496 1010.15 58.276C1012.99 57.056 1016.47 56.446 1020.58 56.446C1023.38 56.446 1026.15 56.7713 1028.87 57.422C1031.6 58.032 1034 58.947 1036.07 60.167L1032.35 69.134C1028.28 66.938 1024.34 65.84 1020.52 65.84C1018.12 65.84 1016.37 66.206 1015.27 66.938C1014.17 67.6293 1013.62 68.5443 1013.62 69.683C1013.62 70.8217 1014.27 71.6757 1015.57 72.245C1016.88 72.8143 1018.97 73.404 1021.86 74.014C1025.11 74.7053 1027.79 75.4577 1029.91 76.271C1032.06 77.0437 1033.91 78.3043 1035.46 80.053C1037.05 81.761 1037.84 84.0993 1037.84 87.068C1037.84 89.63 1037.13 91.948 1035.7 94.022C1034.28 96.096 1032.15 97.7633 1029.3 99.024C1026.45 100.244 1023 100.854 1018.93 100.854ZM1051.91 66.877H1038.8V57.3H1077.04V66.877H1063.99V100H1051.91V66.877Z" fill="#A3B1D7"/>
<path d="M438.696 61.784C435.523 61.784 432.443 61.392 429.456 60.608C426.469 59.824 424.043 58.7787 422.176 57.472L425.816 49.296C427.571 50.4533 429.605 51.3867 431.92 52.096C434.235 52.8053 436.512 53.16 438.752 53.16C443.008 53.16 445.136 52.096 445.136 49.968C445.136 48.848 444.52 48.0267 443.288 47.504C442.093 46.944 440.152 46.3653 437.464 45.768C434.515 45.1333 432.051 44.4613 430.072 43.752C428.093 43.0053 426.395 41.8293 424.976 40.224C423.557 38.6187 422.848 36.4533 422.848 33.728C422.848 31.3387 423.501 29.192 424.808 27.288C426.115 25.3467 428.056 23.816 430.632 22.696C433.245 21.576 436.437 21.016 440.208 21.016C442.784 21.016 445.323 21.3147 447.824 21.912C450.325 22.472 452.528 23.312 454.432 24.432L451.016 32.664C447.283 30.648 443.661 29.64 440.152 29.64C437.949 29.64 436.344 29.976 435.336 30.648C434.328 31.2827 433.824 32.1227 433.824 33.168C433.824 34.2133 434.421 34.9973 435.616 35.52C436.811 36.0427 438.733 36.584 441.384 37.144C444.371 37.7787 446.835 38.4693 448.776 39.216C450.755 39.9253 452.453 41.0827 453.872 42.688C455.328 44.256 456.056 46.4027 456.056 49.128C456.056 51.48 455.403 53.608 454.096 55.512C452.789 57.416 450.829 58.9467 448.216 60.104C445.603 61.224 442.429 61.784 438.696 61.784ZM468.975 30.592H456.935V21.8H492.047V30.592H480.063V61H468.975V30.592ZM513.664 61.784C507.84 61.784 503.304 60.1973 500.056 57.024C496.846 53.8507 495.24 49.352 495.24 43.528V21.8H506.328V43.192C506.328 49.464 508.811 52.6 513.776 52.6C518.704 52.6 521.168 49.464 521.168 43.192V21.8H532.088V43.528C532.088 49.352 530.464 53.8507 527.216 57.024C524.006 60.1973 519.488 61.784 513.664 61.784ZM539.6 21.8H558.136C562.429 21.8 566.237 22.6027 569.56 24.208C572.882 25.8133 575.458 28.0907 577.288 31.04C579.117 33.9893 580.032 37.4427 580.032 41.4C580.032 45.3573 579.117 48.8107 577.288 51.76C575.458 54.7093 572.882 56.9867 569.56 58.592C566.237 60.1973 562.429 61 558.136 61H539.6V21.8ZM557.688 52.152C561.048 52.152 563.736 51.2 565.752 49.296C567.805 47.392 568.832 44.76 568.832 41.4C568.832 38.04 567.805 35.408 565.752 33.504C563.736 31.6 561.048 30.648 557.688 30.648H550.688V52.152H557.688ZM585.865 21.8H596.953V61H585.865V21.8ZM624.61 61.784C620.466 61.784 616.733 60.9067 613.41 59.152C610.125 57.3973 607.53 54.9707 605.626 51.872C603.759 48.7733 602.826 45.2827 602.826 41.4C602.826 37.5173 603.759 34.0267 605.626 30.928C607.53 27.8293 610.125 25.4027 613.41 23.648C616.733 21.8933 620.466 21.016 624.61 21.016C628.754 21.016 632.469 21.8933 635.754 23.648C639.077 25.4027 641.671 27.8293 643.538 30.928C645.442 34.0267 646.394 37.5173 646.394 41.4C646.394 45.2827 645.442 48.7733 643.538 51.872C641.671 54.9707 639.077 57.3973 635.754 59.152C632.469 60.9067 628.754 61.784 624.61 61.784ZM624.61 52.6C626.589 52.6 628.381 52.1333 629.986 51.2C631.591 50.2667 632.861 48.96 633.794 47.28C634.727 45.5627 635.194 43.6027 635.194 41.4C635.194 39.1973 634.727 37.256 633.794 35.576C632.861 33.8587 631.591 32.5333 629.986 31.6C628.381 30.6667 626.589 30.2 624.61 30.2C622.631 30.2 620.839 30.6667 619.234 31.6C617.629 32.5333 616.359 33.8587 615.426 35.576C614.493 37.256 614.026 39.1973 614.026 41.4C614.026 43.6027 614.493 45.5627 615.426 47.28C616.359 48.96 617.629 50.2667 619.234 51.2C620.839 52.1333 622.631 52.6 624.61 52.6Z" fill="black"/>
<path d="M671.078 24.1H678.773C680.771 24.1 682.535 24.505 684.065 25.315C685.595 26.107 686.783 27.223 687.629 28.663C688.475 30.085 688.898 31.714 688.898 33.55C688.898 35.386 688.475 37.024 687.629 38.464C686.783 39.886 685.595 41.002 684.065 41.812C682.535 42.604 680.771 43 678.773 43H671.078V24.1ZM678.665 41.272C680.321 41.272 681.77 40.948 683.012 40.3C684.254 39.634 685.217 38.725 685.901 37.573C686.585 36.403 686.927 35.062 686.927 33.55C686.927 32.038 686.585 30.706 685.901 29.554C685.217 28.384 684.254 27.475 683.012 26.827C681.77 26.161 680.321 25.828 678.665 25.828H673.076V41.272H678.665ZM693.385 24.1H695.383V43H693.385V24.1ZM714.438 43L710.118 36.925C709.632 36.979 709.128 37.006 708.606 37.006H703.53V43H701.532V24.1H708.606C711.018 24.1 712.908 24.676 714.276 25.828C715.644 26.98 716.328 28.564 716.328 30.58C716.328 32.056 715.95 33.307 715.194 34.333C714.456 35.341 713.394 36.07 712.008 36.52L716.625 43H714.438ZM708.552 35.305C710.424 35.305 711.855 34.891 712.845 34.063C713.835 33.235 714.33 32.074 714.33 30.58C714.33 29.05 713.835 27.88 712.845 27.07C711.855 26.242 710.424 25.828 708.552 25.828H703.53V35.305H708.552ZM734.409 41.272V43H721.044V24.1H734.004V25.828H723.042V32.551H732.816V34.252H723.042V41.272H734.409ZM747.208 43.162C745.336 43.162 743.644 42.748 742.132 41.92C740.638 41.092 739.459 39.949 738.595 38.491C737.749 37.015 737.326 35.368 737.326 33.55C737.326 31.732 737.749 30.094 738.595 28.636C739.459 27.16 740.647 26.008 742.159 25.18C743.671 24.352 745.363 23.938 747.235 23.938C748.639 23.938 749.935 24.172 751.123 24.64C752.311 25.108 753.319 25.792 754.147 26.692L752.878 27.961C751.402 26.467 749.539 25.72 747.289 25.72C745.795 25.72 744.436 26.062 743.212 26.746C741.988 27.43 741.025 28.366 740.323 29.554C739.639 30.742 739.297 32.074 739.297 33.55C739.297 35.026 739.639 36.358 740.323 37.546C741.025 38.734 741.988 39.67 743.212 40.354C744.436 41.038 745.795 41.38 747.289 41.38C749.557 41.38 751.42 40.624 752.878 39.112L754.147 40.381C753.319 41.281 752.302 41.974 751.096 42.46C749.908 42.928 748.612 43.162 747.208 43.162ZM761.841 25.828H755.199V24.1H770.481V25.828H763.839V43H761.841V25.828ZM784.708 43L778.606 34.684L772.531 43H770.236L777.418 33.28L770.695 24.1H772.99L778.687 31.822L784.357 24.1H786.517L779.821 33.226L787.03 43H784.708ZM801.205 24.1V43H799.261V25.828H794.806V24.1H801.205ZM818.628 41.272V43H805.371V41.623L813.228 33.928C814.218 32.956 814.884 32.119 815.226 31.417C815.586 30.697 815.766 29.977 815.766 29.257C815.766 28.141 815.379 27.277 814.605 26.665C813.849 26.035 812.76 25.72 811.338 25.72C809.124 25.72 807.405 26.422 806.181 27.826L804.804 26.638C805.542 25.774 806.478 25.108 807.612 24.64C808.764 24.172 810.06 23.938 811.5 23.938C813.426 23.938 814.947 24.397 816.063 25.315C817.197 26.215 817.764 27.457 817.764 29.041C817.764 30.013 817.548 30.949 817.116 31.849C816.684 32.749 815.865 33.784 814.659 34.954L808.233 41.272H818.628Z" fill="#04488F"/>
<path d="M816.462 182.552C813.917 182.552 811.448 182.215 809.056 181.54C806.695 180.835 804.794 179.93 803.352 178.826L805.882 173.214C807.262 174.226 808.903 175.039 810.804 175.652C812.706 176.265 814.607 176.572 816.508 176.572C818.624 176.572 820.188 176.265 821.2 175.652C822.212 175.008 822.718 174.165 822.718 173.122C822.718 172.355 822.412 171.727 821.798 171.236C821.216 170.715 820.449 170.301 819.498 169.994C818.578 169.687 817.321 169.35 815.726 168.982C813.273 168.399 811.264 167.817 809.7 167.234C808.136 166.651 806.787 165.716 805.652 164.428C804.548 163.14 803.996 161.423 803.996 159.276C803.996 157.405 804.502 155.719 805.514 154.216C806.526 152.683 808.044 151.471 810.068 150.582C812.123 149.693 814.622 149.248 817.566 149.248C819.621 149.248 821.63 149.493 823.592 149.984C825.555 150.475 827.272 151.18 828.744 152.1L826.444 157.758C823.47 156.071 820.495 155.228 817.52 155.228C815.435 155.228 813.886 155.565 812.874 156.24C811.893 156.915 811.402 157.804 811.402 158.908C811.402 160.012 811.97 160.84 813.104 161.392C814.27 161.913 816.033 162.435 818.394 162.956C820.848 163.539 822.856 164.121 824.42 164.704C825.984 165.287 827.318 166.207 828.422 167.464C829.557 168.721 830.124 170.423 830.124 172.57C830.124 174.41 829.603 176.097 828.56 177.63C827.548 179.133 826.015 180.329 823.96 181.218C821.906 182.107 819.406 182.552 816.462 182.552ZM864.748 149.8V182H857.296V168.798H842.668V182H835.216V149.8H842.668V162.496H857.296V149.8H864.748ZM893.573 175.1H878.623L875.771 182H868.135L882.487 149.8H889.847L904.245 182H896.425L893.573 175.1ZM891.227 169.442L886.121 157.114L881.015 169.442H891.227ZM907.586 149.8H922.214C925.71 149.8 928.792 150.475 931.46 151.824C934.158 153.143 936.244 155.013 937.716 157.436C939.218 159.859 939.97 162.68 939.97 165.9C939.97 169.12 939.218 171.941 937.716 174.364C936.244 176.787 934.158 178.673 931.46 180.022C928.792 181.341 925.71 182 922.214 182H907.586V149.8ZM921.846 175.882C925.066 175.882 927.626 174.993 929.528 173.214C931.46 171.405 932.426 168.967 932.426 165.9C932.426 162.833 931.46 160.411 929.528 158.632C927.626 156.823 925.066 155.918 921.846 155.918H915.038V175.882H921.846ZM961.183 182.552C957.841 182.552 954.82 181.831 952.121 180.39C949.453 178.949 947.353 176.971 945.819 174.456C944.317 171.911 943.565 169.059 943.565 165.9C943.565 162.741 944.317 159.905 945.819 157.39C947.353 154.845 949.453 152.851 952.121 151.41C954.82 149.969 957.841 149.248 961.183 149.248C964.526 149.248 967.531 149.969 970.199 151.41C972.867 152.851 974.968 154.845 976.501 157.39C978.035 159.905 978.801 162.741 978.801 165.9C978.801 169.059 978.035 171.911 976.501 174.456C974.968 176.971 972.867 178.949 970.199 180.39C967.531 181.831 964.526 182.552 961.183 182.552ZM961.183 176.204C963.085 176.204 964.802 175.775 966.335 174.916C967.869 174.027 969.065 172.8 969.923 171.236C970.813 169.672 971.257 167.893 971.257 165.9C971.257 163.907 970.813 162.128 969.923 160.564C969.065 159 967.869 157.789 966.335 156.93C964.802 156.041 963.085 155.596 961.183 155.596C959.282 155.596 957.565 156.041 956.031 156.93C954.498 157.789 953.287 159 952.397 160.564C951.539 162.128 951.109 163.907 951.109 165.9C951.109 167.893 951.539 169.672 952.397 171.236C953.287 172.8 954.498 174.027 956.031 174.916C957.565 175.775 959.282 176.204 961.183 176.204ZM1031.99 149.8L1021.46 182H1013.45L1006.37 160.196L999.056 182H991.098L980.518 149.8H988.246L995.514 172.432L1003.1 149.8H1010L1017.36 172.616L1024.86 149.8H1031.99ZM1050.09 149.8C1052.94 149.8 1055.41 150.275 1057.5 151.226C1059.61 152.177 1061.24 153.526 1062.37 155.274C1063.51 157.022 1064.07 159.092 1064.07 161.484C1064.07 163.845 1063.51 165.915 1062.37 167.694C1061.24 169.442 1059.61 170.791 1057.5 171.742C1055.41 172.662 1052.94 173.122 1050.09 173.122H1043.6V182H1036.15V149.8H1050.09ZM1049.68 167.05C1051.91 167.05 1053.62 166.575 1054.78 165.624C1055.95 164.643 1056.53 163.263 1056.53 161.484C1056.53 159.675 1055.95 158.295 1054.78 157.344C1053.62 156.363 1051.91 155.872 1049.68 155.872H1043.6V167.05H1049.68ZM1069.39 149.8H1076.85V175.928H1092.99V182H1069.39V149.8ZM1118.63 175.1H1103.68L1100.83 182H1093.19L1107.55 149.8H1114.91L1129.3 182H1121.48L1118.63 175.1ZM1116.29 169.442L1111.18 157.114L1106.07 169.442H1116.29ZM1146.12 170.592V182H1138.67V170.5L1126.21 149.8H1134.12L1142.72 164.106L1151.32 149.8H1158.64L1146.12 170.592Z" fill="#04488F"/>
</svg>
