<svg width="20" height="20" viewBox="0 0 20 20" fill="none" xmlns="http://www.w3.org/2000/svg">
<g clip-path="url(#clip0_31_190)">
<path d="M20.0001 6.90715C20.0001 8.97848 20.0001 11.0502 20.0001 13.1215C19.9844 13.4096 19.9626 13.6973 19.9545 13.9854C19.9381 14.56 19.8834 15.1296 19.7552 15.6905C19.5298 16.6765 19.1035 17.5553 18.3936 18.2905C17.4641 19.2535 16.3042 19.7282 15.0054 19.8914C14.4498 19.9611 13.8861 19.9645 13.3263 19.999C13.2455 20.004 13.1648 20.0136 13.0844 20.0209C11.0318 20.0209 8.97872 20.0209 6.92607 20.0209C6.62184 20.0051 6.31762 19.9837 6.01301 19.9745C5.41069 19.9557 4.8141 19.8933 4.22785 19.7512C2.98301 19.4493 1.95209 18.8126 1.18254 17.7775C0.523192 16.8911 0.211696 15.8728 0.113349 14.7883C0.0528869 14.1195 0.0157677 13.446 0.015385 12.7748C0.0150023 10.5246 -0.0366585 8.27399 0.056331 6.02414C0.0812047 5.42156 0.13784 4.82395 0.279046 4.23668C0.578679 2.98936 1.21392 1.95734 2.24598 1.18542C3.13378 0.521157 4.15514 0.209711 5.24269 0.110492C5.89056 0.0514973 6.54263 0.013189 7.19279 0.013189C9.45247 0.0128059 11.7129 -0.0396765 13.9722 0.0530296C14.5458 0.0763977 15.1153 0.124666 15.6755 0.252999C16.6559 0.477869 17.5315 0.901942 18.2643 1.60796C19.2313 2.54 19.7089 3.70419 19.8719 5.00936C19.9419 5.56981 19.945 6.1383 19.9794 6.70297C19.9829 6.77116 19.9928 6.83935 20.0001 6.90715ZM1.79558 10.0063C1.78716 10.0063 1.77836 10.0063 1.76994 10.0063C1.78678 11.2291 1.79634 12.4523 1.82275 13.6747C1.83538 14.2516 1.87517 14.8278 2.01332 15.3932C2.24177 16.3283 2.73274 17.0788 3.56046 17.5844C4.15475 17.9476 4.81907 18.1031 5.50406 18.156C6.08802 18.2012 6.67465 18.2265 7.26014 18.2315C8.72616 18.2437 10.1918 18.2453 11.6578 18.2403C12.7316 18.2364 13.8073 18.2514 14.8757 18.1108C15.4436 18.0361 15.9881 17.8741 16.4768 17.568C17.4618 16.9508 17.9482 16.0169 18.0863 14.8952C18.1648 14.2581 18.1916 13.613 18.2096 12.9706C18.2329 12.1435 18.231 11.3153 18.2272 10.4878C18.2203 9.11792 18.2099 7.7484 18.1874 6.37888C18.1778 5.79353 18.1399 5.20856 17.9964 4.63623C17.678 3.36555 16.9165 2.50285 15.6625 2.09448C15.0215 1.8857 14.356 1.84164 13.6902 1.82326C12.807 1.79912 11.9234 1.7838 11.0398 1.78571C9.48041 1.78878 7.92102 1.80142 6.36163 1.82287C5.81785 1.83015 5.27407 1.86999 4.73948 1.98837C3.87119 2.18067 3.14105 2.59364 2.60608 3.31843C2.17404 3.90378 1.97122 4.57954 1.89928 5.29054C1.83844 5.8893 1.80974 6.49342 1.79979 7.09563C1.78372 8.06521 1.79558 9.03594 1.79558 10.0063Z" fill="white"/>
<path d="M15.137 10.0256C15.1366 12.8566 12.8322 15.1558 9.9939 15.1524C7.16365 15.1489 4.84236 12.8374 4.87335 9.9547C4.9032 7.15896 7.18087 4.8666 10.0406 4.87502C12.8467 4.88345 15.1374 7.19344 15.137 10.0256ZM13.3526 10.0194C13.3633 8.18103 11.8713 6.69428 10.0708 6.66134C8.18539 6.62686 6.6811 8.14885 6.65546 9.96083C6.62867 11.8468 8.15209 13.3481 9.96366 13.3684C11.8353 13.3898 13.361 11.8625 13.3526 10.0194Z" fill="white"/>
<path d="M15.3414 3.48145C16.008 3.48221 16.5319 4.01431 16.5308 4.68892C16.5292 5.33825 15.9866 5.87571 15.3372 5.87073C14.6763 5.86575 14.1421 5.32905 14.1444 4.67207C14.1463 4.01125 14.6802 3.48068 15.3414 3.48145Z" fill="white"/>
</g>
<defs>
<clipPath id="clip0_31_190">
<rect width="20" height="20" fill="white"/>
</clipPath>
</defs>
</svg>
