<svg width="134" height="57" viewBox="0 0 134 57" fill="none" xmlns="http://www.w3.org/2000/svg">
<path d="M62.8335 9.90576L52.8664 47.092H112.213L122.18 9.90576H62.8335Z" fill="#1E1E1E"/>
<path d="M122.18 9.90576L112.213 47.092H114.078L124.043 9.90576H122.18Z" fill="#76B900"/>
<path d="M9.90854 9.90576V47.092H52.8664L62.8335 9.90576H9.90854Z" fill="#76B900"/>
<path d="M29.8618 34.5022V40.1129H31.4496V34.5022H29.8618ZM17.3823 34.5022V40.1129H18.982V35.8433H20.2219C20.6335 35.8433 20.9262 35.9466 21.1242 36.1567C21.3739 36.4252 21.4686 36.8556 21.4686 37.6441V40.1129H23.0185V37.014C23.0185 34.7966 21.603 34.4971 20.2202 34.4971H17.3823V34.5022ZM32.4156 34.4971V40.1129H34.9901C36.3677 40.1129 36.8085 39.8856 37.2924 39.3743C37.6368 39.0162 37.8555 38.2277 37.8555 37.367C37.8555 36.5785 37.6678 35.8743 37.3389 35.4353C36.7517 34.652 35.9045 34.4988 34.6405 34.4988L32.4156 34.4971ZM33.9895 35.7194H34.6784C35.6685 35.7194 36.3091 36.1636 36.3091 37.3153C36.3091 38.467 35.6685 38.9129 34.6784 38.9129H33.9895V35.7194ZM27.575 34.4971L26.2507 38.9474L24.9816 34.4971H23.2699L25.0815 40.1129H27.3683L29.1937 34.4988L27.575 34.4971ZM38.596 40.1112H40.1837V34.504H38.596V40.1112ZM43.044 34.4988L40.8243 40.1129H42.3896L42.734 39.1213H45.3567L45.6873 40.1129H47.387L45.1483 34.5005L43.044 34.4988ZM48.4977 40.5725C48.3424 40.5725 48.1905 40.5265 48.0614 40.4402C47.9323 40.354 47.8316 40.2314 47.7722 40.0879C47.7128 39.9445 47.6972 39.7866 47.7275 39.6343C47.7578 39.4821 47.8326 39.3422 47.9424 39.2324C48.0522 39.1226 48.1922 39.0478 48.3445 39.0175C48.4968 38.9873 48.6547 39.0028 48.7982 39.0622C48.9417 39.1216 49.0643 39.2223 49.1506 39.3514C49.2369 39.4805 49.2829 39.6322 49.2829 39.7875C49.2838 39.8915 49.2641 39.9946 49.2248 40.0908C49.1855 40.1871 49.1275 40.2746 49.0542 40.3483C48.9808 40.422 48.8935 40.4803 48.7974 40.52C48.7013 40.5597 48.5982 40.5799 48.4942 40.5794L48.4977 40.5725ZM48.4977 39.154C48.3719 39.1519 48.2484 39.1873 48.1428 39.2557C48.0373 39.324 47.9544 39.4222 47.9049 39.5378C47.8553 39.6534 47.8413 39.7811 47.8646 39.9046C47.8879 40.0282 47.9474 40.1421 48.0356 40.2317C48.1238 40.3213 48.2367 40.3827 48.3599 40.408C48.4831 40.4333 48.611 40.4214 48.7274 40.3737C48.8438 40.3261 48.9434 40.2449 49.0135 40.1405C49.0836 40.0361 49.121 39.9132 49.1211 39.7875C49.1225 39.7048 49.1072 39.6227 49.0762 39.546C49.0452 39.4694 48.9991 39.3997 48.9406 39.3413C48.8821 39.2828 48.8124 39.2367 48.7358 39.2057C48.6591 39.1747 48.5769 39.1594 48.4942 39.1608L48.4977 39.154ZM48.6389 40.2041L48.4873 39.8805H48.3892V40.2041H48.217V39.3692H48.5614C48.5971 39.3675 48.6327 39.3731 48.6662 39.3856C48.6996 39.3981 48.7302 39.4172 48.7561 39.4418C48.782 39.4664 48.8027 39.496 48.8169 39.5288C48.831 39.5616 48.8384 39.5969 48.8386 39.6326C48.8384 39.6807 48.8234 39.7276 48.7957 39.767C48.768 39.8064 48.7289 39.8364 48.6837 39.8529L48.8559 40.1972L48.6389 40.2041ZM48.5287 39.5241H48.3892V39.7393H48.5201C48.5347 39.7402 48.5493 39.7382 48.563 39.7332C48.5768 39.7283 48.5894 39.7206 48.6 39.7106C48.6107 39.7006 48.6192 39.6885 48.625 39.6751C48.6308 39.6616 48.6338 39.6472 48.6337 39.6326C48.632 39.605 48.6198 39.5792 48.5996 39.5603C48.5795 39.5414 48.5528 39.5309 48.5252 39.531L48.5287 39.5241ZM44.0738 35.5214L45.0347 38.1503H43.0784L44.0738 35.5214Z" fill="white"/>
<path d="M27.7645 21.3476V19.9996C27.8954 19.9892 28.0279 19.9823 28.1623 19.9789C31.8543 19.8635 34.2755 23.1501 34.2755 23.1501C34.2755 23.1501 31.6597 26.7809 28.8562 26.7809C28.4854 26.783 28.1167 26.7249 27.7645 26.6087V22.5148C29.2024 22.687 29.4865 23.3239 30.3475 24.7632L32.2693 23.1432C32.2693 23.1432 30.8659 21.3045 28.5015 21.3045C28.253 21.3064 28.0047 21.3208 27.7576 21.3476H27.7645ZM27.7576 16.8921V18.9063C27.8902 18.896 28.0228 18.8874 28.1554 18.884C33.2888 18.7118 36.6329 23.0915 36.6329 23.0915C36.6329 23.0915 32.7911 27.7605 28.7908 27.7605C28.4444 27.7611 28.0986 27.7306 27.7576 27.6692V28.9225C28.0432 28.9588 28.3307 28.9772 28.6186 28.9776C32.3434 28.9776 35.0366 27.0839 37.6438 24.8269C38.076 25.1712 39.8463 26.0148 40.2096 26.3763C37.7299 28.4525 31.9525 30.1242 28.672 30.1242C28.3551 30.1242 28.0521 30.1053 27.7541 30.076V31.8269H41.9075V16.8921H27.7576ZM27.7576 26.607V27.6692C24.3135 27.0563 23.3578 23.4772 23.3578 23.4772C24.5448 22.2912 26.0976 21.5408 27.7645 21.3476V22.5148C26.3231 22.3426 25.1969 23.6872 25.1969 23.6872C25.1969 23.6872 25.8289 25.9545 27.7696 26.6139L27.7576 26.607ZM21.653 23.3291C22.3815 22.3764 23.3028 21.5881 24.3568 21.0155C25.4108 20.443 26.5737 20.0991 27.7696 20.0064V18.9132C23.2562 19.2765 19.3455 23.0984 19.3455 23.0984C19.3455 23.0984 21.56 29.4976 27.7696 30.0829V28.9225C23.208 28.3424 21.6478 23.3222 21.6478 23.3222L21.653 23.3291Z" fill="white"/>
<path d="M80.5358 40.1126H77.462L73.8457 34.1404H71.1611V40.1126H68.3232V25.4619H77.1159C77.4377 25.4615 77.7564 25.5245 78.0538 25.6473C78.3512 25.7702 78.6214 25.9504 78.849 26.1778C79.0766 26.4052 79.2571 26.6753 79.3802 26.9725C79.5033 27.2697 79.5666 27.5883 79.5663 27.91V31.6975C79.5666 32.0193 79.5033 32.3379 79.3803 32.6353C79.2572 32.9326 79.0767 33.2028 78.8491 33.4303C78.6215 33.6578 78.3513 33.8383 78.0539 33.9613C77.7565 34.0843 77.4377 34.1475 77.1159 34.1473H76.9437L80.5358 40.1126ZM71.1611 31.5408H75.9415C76.0366 31.5408 76.1308 31.5221 76.2186 31.4856C76.3065 31.4492 76.3863 31.3958 76.4535 31.3284C76.5207 31.2611 76.5739 31.1812 76.6101 31.0933C76.6464 31.0054 76.6649 30.9111 76.6647 30.816V28.8173C76.668 28.6215 76.5938 28.4323 76.4584 28.2908C76.323 28.1493 76.1373 28.0669 75.9415 28.0615H71.1611V31.5408Z" fill="white"/>
<path d="M92.4317 25.4673V28.0221H88.2403V40.1128H85.3817V28.0221H81.1885V25.4673H92.4317Z" fill="white"/>
<path d="M103.351 25.4671H106.508L101.893 32.4171L106.766 40.1126H103.322L100.153 35.12L96.9331 40.1126H93.799L98.6499 32.7339L94.0779 25.4619H97.5134L100.412 30.074L103.351 25.4671Z" fill="white"/>
<path d="M108.449 25.4673V25.624H108.008V26.8291H107.835V25.624H107.415V25.4673H108.449ZM109.749 25.4673H109.921V26.8273H109.749V25.7686L109.351 26.4451H109.203L108.833 25.7996V26.8325H108.66V25.4725H108.833L109.291 26.2627L109.749 25.4673Z" fill="white"/>
<path d="M68.3232 17.9182C68.3232 17.6442 68.432 17.3815 68.6258 17.1878C68.8196 16.9941 69.0824 16.8853 69.3564 16.8853H73.2465V17.9922H69.8455C69.7635 17.9926 69.6848 18.0248 69.6261 18.0819C69.5673 18.1391 69.533 18.2168 69.5303 18.2987V21.1789C69.5314 21.2595 69.5635 21.3365 69.6199 21.3941L70.0521 21.8262C70.0813 21.8561 70.1165 21.8795 70.1554 21.895C70.1942 21.9104 70.2359 21.9175 70.2777 21.9157H71.9257C71.9658 21.9162 72.0057 21.9086 72.0429 21.8935C72.08 21.8783 72.1138 21.8559 72.1422 21.8275C72.1706 21.7991 72.1931 21.7653 72.2082 21.7282C72.2234 21.691 72.2309 21.6511 72.2305 21.611V20.5023H70.7754V19.4022H73.4393V22.0139C73.4384 22.1484 73.411 22.2815 73.3585 22.4055C73.3061 22.5294 73.2297 22.6418 73.1337 22.7362C73.0377 22.8305 72.924 22.905 72.7991 22.9554C72.6743 23.0057 72.5407 23.031 72.4061 23.0296H69.6836C69.6419 23.0305 69.6005 23.0231 69.5617 23.0077C69.523 22.9923 69.4877 22.9693 69.458 22.9401L68.4144 21.8968C68.3571 21.839 68.3244 21.7612 68.3232 21.6799V17.9182Z" fill="white"/>
<path d="M75.699 17.9801V19.4211H78.1925V20.5091H75.699V21.9415H78.7986V23.0295H74.4935V16.8921H78.7986V17.9801H75.699Z" fill="white"/>
<path d="M80.8961 23.0295H79.6993V16.8921H84.0044V17.9801H80.9047V19.4211H83.3982V20.5091H80.8961V23.0295Z" fill="white"/>
<path d="M84.8513 17.9182C84.8512 17.6469 84.958 17.3865 85.1484 17.1932C85.3388 16.9999 85.5976 16.8893 85.869 16.8853H88.948C89.2193 16.8893 89.4781 16.9999 89.6685 17.1932C89.859 17.3865 89.9657 17.6469 89.9657 17.9182V22.0139C89.9657 22.1474 89.9393 22.2796 89.8882 22.403C89.837 22.5263 89.762 22.6384 89.6675 22.7327C89.573 22.827 89.4607 22.9018 89.3373 22.9528C89.2138 23.0037 89.0815 23.0298 88.948 23.0296H85.869C85.7354 23.0298 85.6031 23.0037 85.4796 22.9528C85.3562 22.9018 85.244 22.827 85.1494 22.7327C85.0549 22.6384 84.9799 22.5263 84.9288 22.403C84.8776 22.2796 84.8513 22.1474 84.8513 22.0139V17.9182ZM88.4675 21.9415C88.5079 21.942 88.548 21.9344 88.5853 21.9192C88.6227 21.9039 88.6567 21.8814 88.6853 21.8528C88.7138 21.8243 88.7364 21.7903 88.7516 21.7529C88.7669 21.7155 88.7745 21.6755 88.774 21.6351V18.2952C88.775 18.2129 88.7432 18.1335 88.6858 18.0745C88.6283 18.0154 88.5499 17.9815 88.4675 17.9802H86.346C86.2639 17.982 86.1859 18.0161 86.1288 18.0751C86.0717 18.1341 86.0402 18.2132 86.0412 18.2952V21.6351C86.0407 21.6753 86.0483 21.7152 86.0634 21.7525C86.0785 21.7898 86.1009 21.8237 86.1293 21.8522C86.1577 21.8807 86.1915 21.9033 86.2287 21.9187C86.2659 21.934 86.3057 21.9418 86.346 21.9415H88.4675Z" fill="white"/>
<path d="M96.0896 23.0295H94.8032L93.2896 20.5281H92.1651V23.0295H90.9752V16.8921H94.6586C94.9326 16.8921 95.1954 17.0009 95.3892 17.1946C95.5829 17.3883 95.6918 17.6511 95.6918 17.925V19.5089C95.6918 19.7829 95.5829 20.0456 95.3892 20.2393C95.1954 20.433 94.9326 20.5418 94.6586 20.5418H94.5863L96.0896 23.0295ZM92.1651 19.4383H94.1626C94.2029 19.4388 94.2428 19.4312 94.2801 19.4161C94.3174 19.401 94.3513 19.3786 94.3798 19.3502C94.4083 19.3218 94.4309 19.2881 94.4463 19.2509C94.4616 19.2137 94.4694 19.1738 94.4692 19.1336V18.2952C94.4701 18.2128 94.4384 18.1335 94.3809 18.0744C94.3235 18.0154 94.245 17.9815 94.1626 17.9801H92.1651V19.4383Z" fill="white"/>
<path d="M100.83 17.9802H98.228C98.147 17.9811 98.0696 18.0137 98.0123 18.0709C97.955 18.1282 97.9224 18.2056 97.9215 18.2866V21.6351C97.9213 21.6754 97.9291 21.7154 97.9444 21.7527C97.9597 21.7899 97.9823 21.8238 98.0108 21.8523C98.0393 21.8808 98.0732 21.9034 98.1105 21.9187C98.1478 21.934 98.1877 21.9418 98.228 21.9416H100.83V23.0296H97.7597C97.625 23.031 97.4915 23.0057 97.3666 22.9554C97.2418 22.905 97.1281 22.8305 97.0321 22.7362C96.9361 22.6418 96.8597 22.5294 96.8073 22.4055C96.7548 22.2815 96.7273 22.1484 96.7264 22.0139V17.9182C96.7264 17.6442 96.8353 17.3815 97.0291 17.1878C97.2228 16.9941 97.4856 16.8853 97.7597 16.8853H100.83V17.9802Z" fill="white"/>
<path d="M103.01 17.9801V19.4211H105.504V20.5091H103.01V21.9415H106.11V23.0295H101.805V16.8921H106.11V17.9801H103.01Z" fill="white"/>
</svg>
