<svg width="116" height="39" viewBox="0 0 116 39" fill="none" xmlns="http://www.w3.org/2000/svg">
<path d="M53.8335 0.905762L43.8664 38.092H103.213L113.18 0.905762H53.8335Z" fill="#1E1E1E"/>
<path d="M113.18 0.905762L103.213 38.092H105.078L115.043 0.905762H113.18Z" fill="#76B900"/>
<path d="M0.908539 0.905762V38.092H43.8664L53.8335 0.905762H0.908539Z" fill="#76B900"/>
<path d="M20.8618 25.5022V31.1129H22.4496V25.5022H20.8618ZM8.38226 25.5022V31.1129H9.98203V26.8433H11.2219C11.6335 26.8433 11.9262 26.9466 12.1242 27.1567C12.3739 27.4252 12.4686 27.8556 12.4686 28.6441V31.1129H14.0185V28.014C14.0185 25.7966 12.603 25.4971 11.2202 25.4971H8.38226V25.5022ZM23.4156 25.4971V31.1129H25.9901C27.3677 31.1129 27.8085 30.8856 28.2924 30.3743C28.6368 30.0162 28.8555 29.2277 28.8555 28.367C28.8555 27.5785 28.6678 26.8743 28.3389 26.4353C27.7517 25.652 26.9045 25.4988 25.6405 25.4988L23.4156 25.4971ZM24.9895 26.7194H25.6784C26.6685 26.7194 27.3091 27.1636 27.3091 28.3153C27.3091 29.467 26.6685 29.9129 25.6784 29.9129H24.9895V26.7194ZM18.575 25.4971L17.2507 29.9474L15.9816 25.4971H14.2699L16.0815 31.1129H18.3683L20.1937 25.4988L18.575 25.4971ZM29.596 31.1112H31.1837V25.504H29.596V31.1112ZM34.044 25.4988L31.8243 31.1129H33.3896L33.734 30.1213H36.3567L36.6873 31.1129H38.387L36.1483 25.5005L34.044 25.4988ZM39.4977 31.5725C39.3424 31.5725 39.1905 31.5265 39.0614 31.4402C38.9323 31.354 38.8316 31.2314 38.7722 31.0879C38.7128 30.9445 38.6972 30.7866 38.7275 30.6343C38.7578 30.4821 38.8326 30.3422 38.9424 30.2324C39.0522 30.1226 39.1922 30.0478 39.3445 30.0175C39.4968 29.9873 39.6547 30.0028 39.7982 30.0622C39.9417 30.1216 40.0643 30.2223 40.1506 30.3514C40.2369 30.4805 40.2829 30.6322 40.2829 30.7875C40.2838 30.8915 40.2641 30.9946 40.2248 31.0908C40.1855 31.1871 40.1275 31.2746 40.0542 31.3483C39.9808 31.422 39.8935 31.4803 39.7974 31.52C39.7013 31.5597 39.5982 31.5799 39.4942 31.5794L39.4977 31.5725ZM39.4977 30.154C39.3719 30.1519 39.2484 30.1873 39.1428 30.2557C39.0373 30.324 38.9544 30.4222 38.9049 30.5378C38.8553 30.6534 38.8413 30.7811 38.8646 30.9046C38.8879 31.0282 38.9474 31.1421 39.0356 31.2317C39.1238 31.3213 39.2367 31.3827 39.3599 31.408C39.4831 31.4333 39.611 31.4214 39.7274 31.3737C39.8438 31.3261 39.9434 31.2449 40.0135 31.1405C40.0836 31.0361 40.121 30.9132 40.1211 30.7875C40.1225 30.7048 40.1072 30.6227 40.0762 30.546C40.0452 30.4694 39.9991 30.3997 39.9406 30.3413C39.8821 30.2828 39.8124 30.2367 39.7358 30.2057C39.6591 30.1747 39.5769 30.1594 39.4942 30.1608L39.4977 30.154ZM39.6389 31.2041L39.4873 30.8805H39.3892V31.2041H39.217V30.3692H39.5614C39.5971 30.3675 39.6327 30.3731 39.6662 30.3856C39.6996 30.3981 39.7302 30.4172 39.7561 30.4418C39.782 30.4664 39.8027 30.496 39.8169 30.5288C39.831 30.5616 39.8384 30.5969 39.8386 30.6326C39.8384 30.6807 39.8234 30.7276 39.7957 30.767C39.768 30.8064 39.7289 30.8364 39.6837 30.8529L39.8559 31.1972L39.6389 31.2041ZM39.5287 30.5241H39.3892V30.7393H39.5201C39.5347 30.7402 39.5493 30.7382 39.563 30.7332C39.5768 30.7283 39.5894 30.7206 39.6 30.7106C39.6107 30.7006 39.6192 30.6885 39.625 30.6751C39.6308 30.6616 39.6338 30.6472 39.6337 30.6326C39.632 30.605 39.6198 30.5792 39.5996 30.5603C39.5795 30.5414 39.5528 30.5309 39.5252 30.531L39.5287 30.5241ZM35.0738 26.5214L36.0347 29.1503H34.0784L35.0738 26.5214Z" fill="white"/>
<path d="M18.7645 12.3476V10.9996C18.8954 10.9892 19.0279 10.9823 19.1623 10.9789C22.8543 10.8635 25.2755 14.1501 25.2755 14.1501C25.2755 14.1501 22.6597 17.7809 19.8562 17.7809C19.4854 17.783 19.1167 17.7249 18.7645 17.6087V13.5148C20.2024 13.687 20.4865 14.3239 21.3475 15.7632L23.2693 14.1432C23.2693 14.1432 21.8659 12.3045 19.5015 12.3045C19.253 12.3064 19.0047 12.3208 18.7576 12.3476H18.7645ZM18.7576 7.89209V9.90635C18.8902 9.89602 19.0228 9.88741 19.1554 9.88397C24.2888 9.71181 27.6329 14.0915 27.6329 14.0915C27.6329 14.0915 23.7911 18.7605 19.7908 18.7605C19.4444 18.7611 19.0986 18.7306 18.7576 18.6692V19.9225C19.0432 19.9588 19.3307 19.9772 19.6186 19.9776C23.3434 19.9776 26.0366 18.0839 28.6438 15.8269C29.076 16.1712 30.8463 17.0148 31.2096 17.3763C28.7299 19.4525 22.9525 21.1242 19.672 21.1242C19.3551 21.1242 19.0521 21.1053 18.7541 21.076V22.8269H32.9075V7.89209H18.7576ZM18.7576 17.607V18.6692C15.3135 18.0563 14.3578 14.4772 14.3578 14.4772C15.5448 13.2912 17.0976 12.5408 18.7645 12.3476V13.5148C17.3231 13.3426 16.1969 14.6872 16.1969 14.6872C16.1969 14.6872 16.8289 16.9545 18.7696 17.6139L18.7576 17.607ZM12.653 14.3291C13.3815 13.3764 14.3028 12.5881 15.3568 12.0155C16.4108 11.443 17.5737 11.0991 18.7696 11.0064V9.91323C14.2562 10.2765 10.3455 14.0984 10.3455 14.0984C10.3455 14.0984 12.56 20.4976 18.7696 21.0829V19.9225C14.208 19.3424 12.6478 14.3222 12.6478 14.3222L12.653 14.3291Z" fill="white"/>
<path d="M71.5358 31.1126H68.462L64.8457 25.1404H62.1611V31.1126H59.3232V16.4619H68.1159C68.4377 16.4615 68.7564 16.5245 69.0538 16.6473C69.3512 16.7702 69.6214 16.9504 69.849 17.1778C70.0766 17.4052 70.2571 17.6753 70.3802 17.9725C70.5033 18.2697 70.5666 18.5883 70.5663 18.91V22.6975C70.5666 23.0193 70.5033 23.3379 70.3803 23.6353C70.2572 23.9326 70.0767 24.2028 69.8491 24.4303C69.6215 24.6578 69.3513 24.8383 69.0539 24.9613C68.7565 25.0843 68.4377 25.1475 68.1159 25.1473H67.9437L71.5358 31.1126ZM62.1611 22.5408H66.9415C67.0366 22.5408 67.1308 22.5221 67.2186 22.4856C67.3065 22.4492 67.3863 22.3958 67.4535 22.3284C67.5207 22.2611 67.5739 22.1812 67.6101 22.0933C67.6464 22.0054 67.6649 21.9111 67.6647 21.816V19.8173C67.668 19.6215 67.5938 19.4323 67.4584 19.2908C67.323 19.1493 67.1373 19.0669 66.9415 19.0615H62.1611V22.5408Z" fill="white"/>
<path d="M83.4317 16.4673V19.0221H79.2403V31.1128H76.3817V19.0221H72.1885V16.4673H83.4317Z" fill="white"/>
<path d="M94.3511 16.4671H97.5075L92.8925 23.4171L97.7659 31.1126H94.3218L91.1532 26.12L87.9331 31.1126H84.799L89.6499 23.7339L85.0779 16.4619H88.5134L91.4115 21.074L94.3511 16.4671Z" fill="white"/>
<path d="M99.4485 16.4673V16.624H99.0077V17.8291H98.8355V16.624H98.4153V16.4673H99.4485ZM100.749 16.4673H100.921V17.8273H100.749V16.7686L100.351 17.4451H100.203L99.8325 16.7996V17.8325H99.6603V16.4725H99.8325L100.291 17.2627L100.749 16.4673Z" fill="white"/>
<path d="M59.3232 8.91821C59.3232 8.64425 59.432 8.38151 59.6258 8.1878C59.8196 7.99408 60.0824 7.88525 60.3564 7.88525H64.2465V8.99223H60.8455C60.7635 8.99264 60.6848 9.02478 60.6261 9.08193C60.5673 9.13907 60.533 9.21676 60.5303 9.29868V12.1789C60.5314 12.2595 60.5635 12.3365 60.6199 12.3941L61.0521 12.8262C61.0813 12.8561 61.1165 12.8795 61.1554 12.895C61.1942 12.9104 61.2359 12.9175 61.2777 12.9157H62.9257C62.9658 12.9162 63.0057 12.9086 63.0429 12.8935C63.08 12.8783 63.1138 12.8559 63.1422 12.8275C63.1706 12.7991 63.1931 12.7653 63.2082 12.7282C63.2234 12.691 63.2309 12.6511 63.2305 12.611V11.5023H61.7754V10.4022H64.4393V13.0139C64.4384 13.1484 64.411 13.2815 64.3585 13.4055C64.3061 13.5294 64.2297 13.6418 64.1337 13.7362C64.0377 13.8305 63.924 13.905 63.7991 13.9554C63.6743 14.0057 63.5407 14.031 63.4061 14.0296H60.6836C60.6419 14.0305 60.6005 14.0231 60.5617 14.0077C60.523 13.9923 60.4877 13.9693 60.458 13.9401L59.4144 12.8968C59.3571 12.839 59.3244 12.7612 59.3232 12.6799V8.91821Z" fill="white"/>
<path d="M66.699 8.98013V10.4211H69.1925V11.5091H66.699V12.9415H69.7986V14.0295H65.4935V7.89209H69.7986V8.98013H66.699Z" fill="white"/>
<path d="M71.8961 14.0295H70.6993V7.89209H75.0044V8.98013H71.9047V10.4211H74.3982V11.5091H71.8961V14.0295Z" fill="white"/>
<path d="M75.8513 8.9182C75.8512 8.64691 75.958 8.3865 76.1484 8.19322C76.3388 7.99995 76.5976 7.88932 76.869 7.88525H79.948C80.2193 7.88932 80.4781 7.99995 80.6685 8.19322C80.859 8.3865 80.9657 8.64691 80.9657 8.9182V13.0139C80.9657 13.1474 80.9393 13.2796 80.8882 13.403C80.837 13.5263 80.762 13.6384 80.6675 13.7327C80.573 13.827 80.4607 13.9018 80.3373 13.9528C80.2138 14.0037 80.0815 14.0298 79.948 14.0296H76.869C76.7354 14.0298 76.6031 14.0037 76.4796 13.9528C76.3562 13.9018 76.244 13.827 76.1494 13.7327C76.0549 13.6384 75.9799 13.5263 75.9288 13.403C75.8776 13.2796 75.8513 13.1474 75.8513 13.0139V8.9182ZM79.4675 12.9415C79.5079 12.942 79.548 12.9344 79.5853 12.9192C79.6227 12.9039 79.6567 12.8814 79.6853 12.8528C79.7138 12.8243 79.7364 12.7903 79.7516 12.7529C79.7669 12.7155 79.7745 12.6755 79.774 12.6351V9.29523C79.775 9.21288 79.7432 9.13351 79.6858 9.07448C79.6283 9.01544 79.5499 8.98154 79.4675 8.98018H77.346C77.2639 8.98199 77.1859 9.01609 77.1288 9.07508C77.0717 9.13406 77.0402 9.21317 77.0412 9.29523V12.6351C77.0407 12.6753 77.0483 12.7152 77.0634 12.7525C77.0785 12.7898 77.1009 12.8237 77.1293 12.8522C77.1577 12.8807 77.1915 12.9033 77.2287 12.9187C77.2659 12.934 77.3057 12.9418 77.346 12.9415H79.4675Z" fill="white"/>
<path d="M87.0896 14.0295H85.8032L84.2896 11.5281H83.1651V14.0295H81.9752V7.89209H85.6586C85.9326 7.89209 86.1954 8.00092 86.3892 8.19463C86.5829 8.38835 86.6918 8.65108 86.6918 8.92504V10.5089C86.6918 10.7829 86.5829 11.0456 86.3892 11.2393C86.1954 11.433 85.9326 11.5418 85.6586 11.5418H85.5863L87.0896 14.0295ZM83.1651 10.4383H85.1626C85.2029 10.4388 85.2428 10.4312 85.2801 10.4161C85.3174 10.401 85.3513 10.3786 85.3798 10.3502C85.4083 10.3218 85.4309 10.2881 85.4463 10.2509C85.4616 10.2137 85.4694 10.1738 85.4692 10.1336V9.29518C85.4701 9.21283 85.4384 9.13346 85.3809 9.07443C85.3235 9.01539 85.245 8.98149 85.1626 8.98013H83.1651V10.4383Z" fill="white"/>
<path d="M91.83 8.98018H89.228C89.147 8.98108 89.0696 9.01365 89.0123 9.07093C88.955 9.1282 88.9224 9.20563 88.9215 9.28662V12.6351C88.9213 12.6754 88.9291 12.7154 88.9444 12.7527C88.9597 12.7899 88.9823 12.8238 89.0108 12.8523C89.0393 12.8808 89.0732 12.9034 89.1105 12.9187C89.1478 12.934 89.1877 12.9418 89.228 12.9416H91.83V14.0296H88.7597C88.625 14.031 88.4915 14.0057 88.3666 13.9554C88.2418 13.905 88.1281 13.8305 88.0321 13.7362C87.9361 13.6418 87.8597 13.5294 87.8073 13.4055C87.7548 13.2815 87.7273 13.1484 87.7264 13.0139V8.91821C87.7264 8.64425 87.8353 8.38151 88.0291 8.1878C88.2228 7.99408 88.4856 7.88525 88.7597 7.88525H91.83V8.98018Z" fill="white"/>
<path d="M94.0104 8.98013V10.4211H96.5039V11.5091H94.0104V12.9415H97.11V14.0295H92.8049V7.89209H97.11V8.98013H94.0104Z" fill="white"/>
</svg>
